<svg width="40" height="44" viewBox="0 0 40 44" fill="none" xmlns="http://www.w3.org/2000/svg">
<path fill-rule="evenodd" clip-rule="evenodd" d="M3.58891 13.2659C9.18482 16.5269 14.7807 19.7918 20.3727 23.0528L32.1544 16.1806C33.5015 15.3956 35.2552 15.8707 36.0325 17.2314C36.8097 18.5921 36.3393 20.3635 34.9922 21.1485C30.1177 23.9908 25.2432 26.833 20.3727 29.6753L3.58891 19.8844V13.2659ZM3.58891 30.1101V23.4916C9.18482 26.7525 14.7807 30.0175 20.3727 33.2824C24.2308 31.032 28.089 28.7815 31.9471 26.5311C33.2943 25.746 35.044 26.2211 35.8212 27.5818C36.5984 28.9426 36.1281 30.7139 34.7809 31.499C29.9782 34.301 25.1714 37.1029 20.3687 39.9049C14.7728 36.644 9.17685 33.379 3.58493 30.1181L3.58891 30.1101ZM20.3766 15.8465C15.2949 12.8835 10.2171 9.92047 5.13536 6.95745L16.2076 0.5C21.2894 3.46302 26.3671 6.42604 31.4489 9.38906C27.7582 11.5429 24.0674 13.6927 20.3766 15.8465ZM38.5036 26.0158C37.9894 25.118 37.276 24.4054 36.4549 23.9022L36.5426 23.8499C39.3645 22.2033 40.341 18.5237 38.7108 15.6694C37.0807 12.8191 33.4378 11.8327 30.6119 13.4793L20.3727 19.4496L2.04645 8.76102L0.5 9.65879V31.9096L20.3766 43.5L36.3354 34.1923C39.1572 32.5457 40.1337 28.8661 38.5036 26.0118V26.0158Z" fill="#FFD012"/>
</svg>
