<svg width="65" height="29" viewBox="0 0 65 29" fill="none" xmlns="http://www.w3.org/2000/svg">
<path fill-rule="evenodd" clip-rule="evenodd" d="M9.0437 5.69506C10.2438 5.80163 11.444 5.05567 12.1941 4.1099C12.9316 3.13749 13.4192 1.83207 13.2942 0.5C12.2316 0.553283 10.9189 1.24596 10.1688 2.21837C9.48125 3.05757 8.89369 4.41628 9.0437 5.69506ZM23.3203 22.8521V2.08519H30.6337C34.4091 2.08519 37.0469 4.85589 37.0469 8.90537C37.0469 12.9549 34.3591 15.7522 30.5337 15.7522H26.3457V22.8521H23.3203ZM13.2816 5.94818C12.2243 5.88334 11.2596 6.28698 10.4803 6.61302C9.97886 6.82284 9.55422 7.00051 9.23115 7.00051C8.8686 7.00051 8.42643 6.81333 7.92996 6.60318C7.27943 6.32781 6.53569 6.01299 5.75576 6.0281C3.96806 6.05474 2.30537 7.13372 1.39277 8.85208C-0.482442 12.2888 0.905214 17.3773 2.71792 20.1746C3.60552 21.56 4.66814 23.0786 6.06829 23.0253C6.68428 23.0005 7.12738 22.8002 7.58595 22.5928C8.11389 22.3541 8.66233 22.1061 9.51868 22.1061C10.3453 22.1061 10.8698 22.3477 11.3732 22.5795C11.8519 22.7999 12.3116 23.0116 12.9941 22.9986C14.4442 22.972 15.3568 21.6133 16.2444 20.2279C17.2023 18.7411 17.6232 17.29 17.6871 17.0698L17.6946 17.0443C17.6931 17.0427 17.6812 17.0369 17.6604 17.0267C17.3401 16.8705 14.8928 15.6767 14.8693 12.4753C14.8457 9.78822 16.8105 8.42678 17.1198 8.21247L17.1198 8.21245L17.1199 8.21238C17.1387 8.19939 17.1513 8.19062 17.157 8.18605C15.9069 6.21459 13.9567 6.00146 13.2816 5.94818ZM42.5726 23.0118C44.4728 23.0118 46.2355 21.9862 47.0356 20.361H47.0981V22.852H49.8984V12.5152C49.8984 9.51801 47.6482 7.58652 44.1853 7.58652C40.9724 7.58652 38.5972 9.54466 38.5097 12.2354H41.235C41.46 10.9566 42.5726 10.1174 44.0978 10.1174C45.948 10.1174 46.9856 11.0366 46.9856 12.7283V13.8739L43.2102 14.1136C39.6973 14.3401 37.7971 15.872 37.7971 18.5361C37.7971 21.2269 39.7598 23.0118 42.5726 23.0118ZM43.3851 20.5476C41.7724 20.5476 40.7473 19.7217 40.7473 18.4563C40.7473 17.1509 41.7349 16.3916 43.6226 16.2717L46.9855 16.0452V17.2175C46.9855 19.1623 45.4353 20.5476 43.3851 20.5476ZM59.1869 23.6646C57.9743 27.3011 56.5866 28.5 53.6363 28.5C53.4113 28.5 52.6612 28.4734 52.4862 28.4201V25.9291C52.6737 25.9558 53.1362 25.9824 53.3738 25.9824C54.7114 25.9824 55.4615 25.383 55.924 23.8244L56.1991 22.9053L51.0735 7.78637H54.2363L57.7992 20.0547H57.8618L61.4247 7.78637H64.5L59.1869 23.6646ZM26.3454 4.80255H29.8333C32.4586 4.80255 33.9588 6.29446 33.9588 8.91863C33.9588 11.5428 32.4586 13.048 29.8208 13.048H26.3454V4.80255Z" fill="white"/>
</svg>
