<svg width="65" height="39" viewBox="0 0 65 39" fill="none" xmlns="http://www.w3.org/2000/svg">
<path fill-rule="evenodd" clip-rule="evenodd" d="M32.5 34.3417C29.1106 37.2465 24.7141 39 19.9098 39C9.19008 39 0.5 30.2696 0.5 19.5C0.5 8.73045 9.19008 0 19.9098 0C24.7141 0 29.1106 1.75354 32.5 4.6583C35.8894 1.75354 40.2859 0 45.0902 0C55.8099 0 64.5 8.73045 64.5 19.5C64.5 30.2696 55.8099 39 45.0902 39C40.2859 39 35.8894 37.2465 32.5 34.3417Z" fill="#ED0006"/>
<path fill-rule="evenodd" clip-rule="evenodd" d="M32.5 34.3417C36.6734 30.765 39.3197 25.443 39.3197 19.5C39.3197 13.557 36.6734 8.23495 32.5 4.6583C35.8894 1.75354 40.2859 0 45.0902 0C55.8099 0 64.5 8.73045 64.5 19.5C64.5 30.2696 55.8099 39 45.0902 39C40.2859 39 35.8894 37.2465 32.5 34.3417Z" fill="#F9A000"/>
<path fill-rule="evenodd" clip-rule="evenodd" d="M32.5 4.65839C36.6733 8.23505 39.3196 13.5571 39.3196 19.5C39.3196 25.443 36.6733 30.765 32.5 34.3416C28.3267 30.765 25.6804 25.443 25.6804 19.5C25.6804 13.5571 28.3267 8.23504 32.5 4.65839Z" fill="#FF5E00"/>
</svg>
