<svg width="65" height="23" viewBox="0 0 65 23" fill="none" xmlns="http://www.w3.org/2000/svg">
<path fill-rule="evenodd" clip-rule="evenodd" d="M16.5007 22.3286H10.9619L6.80845 5.26167C6.61131 4.47659 6.19273 3.78254 5.57701 3.45542C4.0404 2.63336 2.34717 1.97913 0.5 1.64916V0.992086H9.42257C10.654 0.992086 11.5776 1.97913 11.7315 3.12546L13.8866 15.4364L19.4227 0.992086H24.8075L16.5007 22.3286ZM27.8862 22.3286H22.6552L26.9626 0.992086H32.1935L27.8862 22.3286ZM38.961 6.90296C39.115 5.75378 40.0386 5.09671 41.1161 5.09671C42.8093 4.93172 44.6538 5.26169 46.1931 6.0809L47.1167 1.48704C45.5774 0.829961 43.8841 0.5 42.3475 0.5C37.2705 0.5 33.5762 3.45543 33.5762 7.55719C33.5762 10.6776 36.193 12.316 38.0402 13.3031C40.0386 14.2873 40.8082 14.9444 40.6543 15.9285C40.6543 17.4048 39.115 18.0619 37.5784 18.0619C35.7312 18.0619 33.884 17.5698 32.1935 16.7478L31.2699 21.3445C33.1171 22.1637 35.1155 22.4936 36.9627 22.4936C42.6554 22.6558 46.1931 19.7032 46.1931 15.2715C46.1931 9.69057 38.961 9.36345 38.961 6.90296ZM64.5 22.3286L60.3466 0.992086H55.8853C54.9617 0.992086 54.0381 1.64916 53.7303 2.63336L46.0391 22.3286H51.424L52.4988 19.2111H59.1151L59.7309 22.3286H64.5ZM56.6549 6.73799L58.1915 14.7794H53.8842L56.6549 6.73799Z" fill="white"/>
</svg>
